<svg xmlns="http://www.w3.org/2000/svg" width="32" height="32" viewBox="0 0 32 32" fill="none"><rect width="32" height="32" rx="4" fill="white"/><path d="M20.1636 20.0685C20.1636 20.0685 20.2824 19.6036 18.9186 18.9265C18.1075 18.5223 17.317 18.6132 16.5008 18.3707C15.6845 18.1281 13.6284 17.2843 13.6284 17.2843C13.6284 17.2843 13.0756 16.5668 12.342 15.8846C11.7531 15.344 10.9575 14.9347 10.9575 14.9347C10.9575 14.9347 10.7457 15.0964 10.477 15.4905C10.2084 15.8846 10.0792 16.304 10.0792 16.304C10.0792 16.304 11.8306 18.4717 13.6904 19.0478C15.5502 19.6238 16.3458 19.5531 16.3458 19.5531C16.5163 19.543 17.6787 19.6238 18.3813 19.639C19.3629 19.6592 20.1636 20.0685 20.1636 20.0685Z" fill="#1C124A"/><path d="M22.1419 23.11C22.1315 21.3718 20.7935 20.8716 20.7935 20.8716C21.2998 22.6502 19.7034 23.9185 19.7034 23.9185C19.7034 23.9185 19.0163 24.3884 17.1307 24.8533C15.2037 25.3333 12.9564 23.3778 12.9564 23.3778C12.9564 23.3778 12.3468 22.9433 11.4169 21.8923C10.487 20.8413 10.1667 20.336 9.89802 19.4264C9.63971 18.5573 9.62421 17.3446 9.67587 16.6473C9.72754 15.945 9.97035 15.5407 9.97035 15.5407C9.97035 15.5407 10.6781 14.6161 10.7401 14.2977C10.8021 13.9794 10.4456 14.0501 10.4456 14.0501C10.4456 14.0501 9.14892 14.7929 8.57548 13.7874C8.19835 13.1254 8.35333 12.5241 7.82121 12.3473C7.82121 12.3473 7.33043 14.419 5.78057 14.8131C4.65951 15.1011 4.57169 13.8834 4.57169 13.8834C4.57169 13.8834 4.14806 15.3285 4.04473 16.3088C3.93624 17.284 4.0034 18.5624 4.48903 20.3511C4.98498 22.1853 6.24036 23.8023 7.57324 25.1059C8.91128 26.4096 10.3526 27.3848 12.6774 27.8648C14.4804 28.2388 17.3425 27.8093 18.758 26.9048C19.4658 26.45 20.0031 25.8891 20.3854 25.4142V25.4192C21.7906 24.636 24.2548 25.3081 24.2548 25.3081C24.3117 23.9842 22.1419 23.11 22.1419 23.11Z" fill="#1C124A"/><path d="M12.2428 5.84938C13.245 4.72257 12.9557 4.3335 12.9557 4.3335C12.9557 4.3335 12.3719 5.00048 11.4627 5.37945C10.8117 5.65231 9.76816 6.1576 9.60801 6.20813C9.60801 6.20813 8.84342 6.43552 7.34522 7.65327C5.84703 8.87103 5.05144 11.5238 5.05144 11.5238L4.95845 11.8725C4.87062 12.4081 4.88095 12.5091 4.89129 13.1104C4.90162 13.6562 5.35108 14.0604 5.47507 14.2322C5.59905 14.404 6.41531 13.9037 6.9216 13.1509C7.42788 12.398 7.24707 11.9584 7.24707 11.9584L7.03525 11.5845C7.13341 11.4228 7.23157 11.251 7.31423 11.0792C7.73785 10.1797 7.97033 9.31063 7.97033 9.31063C7.97033 9.31063 9.55118 7.77454 10.2176 7.24904C10.8789 6.72859 11.6487 6.52141 12.2428 5.84938Z" fill="#1C124A"/><path d="M27.3285 12.7866L24.3321 7.70337L21.3306 12.7866H27.3285Z" fill="#1C124A"/><path d="M19.3874 9.29535C20.8825 9.29535 22.0945 8.10992 22.0945 6.64761C22.0945 5.18531 20.8825 3.99988 19.3874 3.99988C17.8924 3.99988 16.6804 5.18531 16.6804 6.64761C16.6804 8.10992 17.8924 9.29535 19.3874 9.29535Z" fill="#1C124A"/><path d="M24.626 20.5501L28.0001 17.3046L24.6818 14.0045L21.3077 17.2499L24.626 20.5501Z" fill="#1C124A"/><path d="M14.388 10.6849L12.5127 11.3822C12.5592 11.6247 12.5592 11.8723 12.5075 12.1148C13.1843 11.943 14.419 11.6247 15.0854 11.4226C16.036 11.1346 17.1157 11.2457 17.1157 11.2457C17.0021 10.695 16.563 10.4373 16.563 10.4373C16.563 10.4373 16.4338 10.3615 15.8242 10.3261C15.2146 10.2907 14.388 10.6849 14.388 10.6849Z" fill="#1C124A"/><path d="M16.0308 12.6505C16.0308 12.6505 16.7592 12.5848 16.9297 12.4332C17.1002 12.2766 16.7075 11.5843 16.7075 11.5843C16.7075 11.5843 16.6094 11.5692 16.1754 11.5641C15.7466 11.5591 14.2381 11.9734 14.2381 11.9734L12.4144 12.4231C12.3576 12.5697 12.2853 12.7111 12.1871 12.8425L14.0986 12.8981L16.0308 12.6505Z" fill="#1C124A"/><path d="M12.7588 9.47693C12.578 9.5881 12.0821 9.97717 11.7308 10.2551C11.8393 10.3258 11.9374 10.3966 12.0304 10.4875C12.6194 10.0782 13.9419 9.28492 14.4998 9.14849C15.1921 8.98175 16.0652 9.18386 16.0652 9.18386C16.0652 9.18386 16.3648 9.40619 15.8017 8.86048C15.2334 8.31476 14.8666 8.34003 14.8666 8.34003C14.8666 8.34003 14.5928 8.38045 14.2364 8.53709C13.8799 8.69878 13.0481 9.29503 12.7588 9.47693Z" fill="#1C124A"/><path d="M15.4722 10.0281C16.0301 9.91696 16.0973 9.97759 16.0973 9.97759C16.0973 9.88159 15.9475 9.63905 15.9475 9.63905C15.9475 9.63905 15.9061 9.50262 15.529 9.42682C15.1519 9.35103 14.7541 9.42177 14.3253 9.53293C13.9172 9.63905 12.3725 10.6193 12.2227 10.7153C12.2433 10.7456 12.2743 10.7658 12.2898 10.8012C12.3466 10.8922 12.388 10.9882 12.4241 11.0842L13.819 10.5688C13.8242 10.5688 14.9142 10.1342 15.4722 10.0281Z" fill="#1C124A"/><path d="M11.516 8.99705C11.3352 9.13348 10.9477 9.59329 10.6688 9.93689C10.9426 9.93689 11.1957 10.0026 11.4334 10.0986C11.8467 9.78025 12.5286 9.2598 12.9574 8.94147C13.6083 8.45638 14.5589 8.08752 14.5589 8.08752C14.5589 8.08752 14.3058 7.7035 14.0578 7.65802C13.8046 7.6176 13.66 7.74392 13.0607 8.01678C12.4563 8.28458 11.8105 8.76461 11.516 8.99705Z" fill="#1C124A"/><path d="M17.6267 12.5997C17.6267 12.5997 17.3994 12.6705 17.2185 12.7261C17.0377 12.7816 15.6894 13.004 15.1934 13.0848C14.7026 13.1657 13.5609 13.2212 12.9719 13.196C12.6723 13.1859 12.259 13.1657 11.9232 13.1454C11.8457 13.2212 11.7527 13.2869 11.6597 13.3526C12.4398 13.5648 13.9793 13.9792 14.7543 14.0903C15.8185 14.247 16.9447 14.0146 17.3374 13.9135C17.73 13.8175 17.854 13.7821 17.9056 13.4436C17.9573 13.1101 17.6267 12.5997 17.6267 12.5997Z" fill="#1C124A"/><path d="M9.54673 10.2504C9.75338 10.1241 9.98586 10.0483 10.2183 9.99778C10.7608 9.24994 11.3807 8.7396 11.6907 8.44147C12.0317 8.11303 13.3955 7.48647 13.3955 7.48647C13.3955 7.48647 12.8841 6.97612 11.8767 7.46626C10.8693 7.95639 10.2183 8.78507 10.2183 8.78507C10.2183 8.78507 8.75114 10.685 8.65298 11.2357C8.64781 11.2661 8.65815 11.2863 8.65298 11.3166C8.81313 10.8921 9.11277 10.5081 9.54673 10.2504Z" fill="#1C124A"/><path d="M14.5428 14.3888C14.5428 14.3888 11.7634 13.737 11.5465 13.6662C11.4741 13.641 11.3811 13.6005 11.2882 13.5551C11.1332 13.6207 10.9782 13.6713 10.8129 13.7016C11.6085 14.1614 12.59 14.5606 13.3856 14.788C14.4912 15.1063 15.1835 15.1164 15.9377 15.0052C16.692 14.8941 16.8108 14.3383 16.8108 14.3383C16.1289 14.4898 14.5428 14.3888 14.5428 14.3888Z" fill="#1C124A"/><path d="M11.3758 13.1792C12.1914 12.6918 12.48 11.7002 12.0204 10.9644C11.5608 10.2286 10.5271 10.0272 9.71146 10.5146C8.89586 11.0019 8.60726 11.9935 9.06686 12.7293C9.52646 13.4651 10.5602 13.6665 11.3758 13.1792Z" fill="#1C124A"/></svg>